<svg xmlns="http://www.w3.org/2000/svg" width="12" height="14.143" viewBox="0 0 12 14.143">
  <path id="Path_2324" data-name="Path 2324" d="M14.5,5.714h-.75V4.367A3.575,3.575,0,0,0,10,1,3.575,3.575,0,0,0,6.25,4.367V5.714H5.5A1.434,1.434,0,0,0,4,7.061V13.8a1.434,1.434,0,0,0,1.5,1.347h9A1.434,1.434,0,0,0,16,13.8V7.061A1.434,1.434,0,0,0,14.5,5.714ZM7.75,4.367A2.142,2.142,0,0,1,10,2.347a2.142,2.142,0,0,1,2.25,2.02V5.714H7.75ZM14.5,13.8h-9V7.061h9ZM10,11.776a1.434,1.434,0,0,0,1.5-1.347A1.434,1.434,0,0,0,10,9.082a1.434,1.434,0,0,0-1.5,1.347A1.434,1.434,0,0,0,10,11.776Z" transform="translate(-4 -1)" fill="#c1a575"/>
</svg>
